<svg width="124" height="110" viewBox="0 0 124 110" fill="none" xmlns="http://www.w3.org/2000/svg">
<path d="M60.448 52.8522V20.2393L35.8481 0V28.4321C8.14397 36.1423 13.4227 43.592 17.672 46.7778L0 55.2749L28.8056 69.1343L57.9873 55.2749L28.8056 41.4261L18.2612 46.4973C13.7362 40.3753 27.5149 33.0551 35.8481 29.3391V33.0241L60.448 52.8522Z" fill="#BF0A44"/>
<path d="M89.0324 76.9794L64.4324 57.149V89.7604L75.1897 98.6119C73.2873 106.973 62.5384 100.694 54.7907 94.8415L60.9721 89.7604V57.149L36.3721 76.9794V110L53.6302 95.8027C72.8082 115.491 75.1151 103.016 75.3683 98.7532L89.0332 110L89.0324 76.9794Z" fill="#0063B0"/>
<path d="M97.6743 43.0791C104.215 12.5227 92.5112 17.3609 88.5067 19.7633V0.00183105L63.9059 20.24V52.8517L88.5067 33.0177V20.0248C97.1867 16.7415 97.4022 32.9047 96.7879 42.6571L94.1987 41.4268L65.3929 55.2767L94.1987 69.1361L123.378 55.2767L97.6743 43.0791Z" fill="#249795"/>
</svg>
