<svg width="83" height="74" viewBox="0 0 83 74" fill="none" xmlns="http://www.w3.org/2000/svg">
<path d="M40.665 35.5551V13.6155L24.116 0V19.127C5.47867 24.3139 9.0298 29.3255 11.8885 31.4687L0 37.1849L19.3783 46.5086L39.0097 37.1849L19.3783 27.8685L12.2848 31.28C9.2407 27.1616 18.51 22.2371 24.116 19.7372V22.2162L40.665 35.5551Z" fill="#BF0A44"/>
<path d="M59.8945 51.7861L43.3455 38.4457V60.3843L50.5821 66.3389C49.3024 71.9634 42.0713 67.7397 36.8592 63.8024L41.0176 60.3843V38.4457L24.4685 51.7861V74L36.0785 64.4491C48.9801 77.6937 50.532 69.3017 50.7023 66.4339L59.8951 74L59.8945 51.7861Z" fill="#0063B0"/>
<path d="M65.7083 28.9805C70.1082 8.42439 62.2349 11.6791 59.541 13.2953V0.0012207L42.9913 13.616V35.5548L59.541 22.2119V13.4712C65.3803 11.2625 65.5252 22.1359 65.112 28.6966L63.3702 27.8689L43.9917 37.1861L63.3702 46.5097L83 37.1861L65.7083 28.9805Z" fill="#249795"/>
</svg>
