<svg width="32" height="28" viewBox="0 0 32 28" fill="none" xmlns="http://www.w3.org/2000/svg">
<path d="M15.6781 13.4533V5.15183L9.29774 0V7.23725C2.11226 9.19985 3.48137 11.0961 4.58351 11.9071L0 14.07L7.47115 17.5978L15.0399 14.07L7.47115 10.5448L4.73631 11.8357C3.56268 10.2774 7.13639 8.41403 9.29774 7.46814V8.40615L15.6781 13.4533Z" fill="#BF0A44"/>
<path d="M23.0918 19.5947L16.7115 14.547V22.8481L19.5015 25.1012C19.0081 27.2294 16.2202 25.6312 14.2107 24.1414L15.814 22.8481V14.547L9.43359 19.5947V28L13.9097 24.3861C18.8838 29.3976 19.4822 26.2222 19.5478 25.1372L23.092 28L23.0918 19.5947Z" fill="#0063B0"/>
<path d="M25.3331 10.9656C27.0295 3.18763 23.994 4.41916 22.9553 5.03069V0.000488281L16.5747 5.15201V13.4532L22.9553 8.40453V5.09724C25.2066 4.2615 25.2625 8.37577 25.1032 10.8582L24.4316 10.545L16.9604 14.0704L24.4316 17.5983L31.9998 14.0704L25.3331 10.9656Z" fill="#249795"/>
</svg>
